<svg width="42" height="22" fill="none" xmlns="http://www.w3.org/2000/svg"><path d="M10.5.5C4.717.5 0 5.217 0 11c0 5.79 4.71 10.5 10.5 10.5 4.395 0 7.078-2.414 9.14-5.39-.615-.99-1.13-1.97-1.64-2.907-1.84 3.041-3.902 5.297-7.5 5.297A7.507 7.507 0 013 11c0-4.16 3.34-7.5 7.5-7.5 2.426 0 3.967.867 5.39 2.344 1.424 1.476 2.626 3.61 3.844 5.86 1.22 2.25 2.455 4.616 4.266 6.515 1.81 1.898 4.307 3.281 7.5 3.281C37.283 21.5 42 16.783 42 11 42 5.21 37.29.5 31.5.5c-4.371 0-7.072 2.338-9.14 5.25a52.54 52.54 0 011.687 2.86C25.875 5.655 27.914 3.5 31.5 3.5c4.137 0 7.5 3.363 7.5 7.5 0 4.16-3.34 7.5-7.5 7.5-2.385 0-3.885-.867-5.297-2.344-1.412-1.476-2.619-3.61-3.844-5.86-1.224-2.25-2.484-4.616-4.312-6.515C16.219 1.883 13.723.5 10.5.5z" fill="#EE3D48"/></svg>