<svg width="40" height="10" fill="none" xmlns="http://www.w3.org/2000/svg"><path d="M18.931 1.344C18.314.78 17.573.5 16.705.5c-2.331 0-3.478.809-4.496 1.934v.035c-.272.29-.596.726-.97 1.23-.347.467-.736.992-1.167 1.512-.885 1.072-2.043 2.175-3.83 2.672-.01.002-.016.01-.021.017-.006.008-.011.016-.023.018-2.437.725-4.318.237-5.698-.633.2.321.417.633.846.914 1.046.686 3.116 1.301 6.9 1.301 4.185 0 8.743-1.055 10.64-2.988L20 5.352l1.113 1.16C23.01 8.445 27.568 9.5 31.753 9.5c3.784 0 5.855-.615 6.9-1.3.43-.282.646-.594.847-.915-1.38.87-3.261 1.358-5.699.633a.054.054 0 00-.022 0c-.009.001-.017.002-.022 0v-.035c-1.787-.497-2.944-1.6-3.83-2.672a36.413 36.413 0 01-1.18-1.528c-.37-.497-.69-.928-.956-1.214v-.035C26.772 1.309 25.62.5 23.294.5c-.868 0-1.608.277-2.226.844L20 2.364l-1.069-1.02z" fill="#EE3D48"/></svg>