<svg width="42" height="35" fill="none" xmlns="http://www.w3.org/2000/svg"><path d="M.5.5v24h5.39L5.75 26l1.5.14 3.422.376-.235 1.312-.28 1.453 1.452.282 23.578 4.5 1.454.28.28-1.452 4.032-20.72.328-1.452-1.5-.281-5.062-.985L35 6.5l.14-1.453-1.453-.188-6.187-.75V.5H.5zm3 3h21v18h-21v-18zm10.5 3c-2.467 0-4.5 2.033-4.5 4.5 0 1.008.322 1.963.89 2.719A5.96 5.96 0 008 18.5h3c0-1.787 1.213-3 3-3s3 1.213 3 3h3a5.96 5.96 0 00-2.39-4.781c.568-.756.89-1.711.89-2.719 0-2.467-2.033-4.5-4.5-4.5zm13.5.61l4.36.562-1.829 17.86-9.61-1.032H27.5V7.11zM14 9.5c.844 0 1.5.656 1.5 1.5s-.656 1.5-1.5 1.5a1.48 1.48 0 01-1.5-1.5c0-.844.656-1.5 1.5-1.5zm20.39 2.953l3.376.656-3.516 17.72-20.578-3.938v-.094l17.578 1.875 1.5.187.14-1.5 1.5-14.906z" fill="#EE3D48"/></svg>