<svg width="48" height="23" fill="none" xmlns="http://www.w3.org/2000/svg"><path fill-rule="evenodd" clip-rule="evenodd" d="M.65 2.492C1.438 1.198 2.887.5 4.963.5c2.892 0 8.018.782 11.338 1.29.814.123 1.52.231 2.057.307 1.202.168 2.027.831 2.605 1.547.467.58.838 1.284 1.127 1.834l.117.22c.721 1.355 1.092 1.725 1.794 1.725s1.073-.37 1.794-1.725l.116-.22c.29-.55.66-1.255 1.128-1.835.578-.716 1.404-1.378 2.606-1.546.545-.077 1.264-.186 2.094-.313C35.06 1.278 40.158.5 43.038.5c2.076 0 3.525.698 4.311 1.992.656 1.078.653 2.312.651 2.896v.074c0 3.021-1.666 7.337-4.257 10.855C41.153 19.834 37.301 23 32.653 23c-1.91 0-3.351-.306-4.48-.854-1.151-.557-1.86-1.31-2.376-1.99-.17-.225-.34-.47-.478-.67l-.138-.2a3.877 3.877 0 00-.412-.518c-.151-.15-.309-.268-.769-.268s-.618.118-.769.268c-.115.114-.238.27-.412.518l-.138.2c-.138.2-.307.445-.478.67-.516.68-1.225 1.433-2.375 1.99-1.13.548-2.571.854-4.482.854-4.648 0-8.5-3.167-11.089-6.683C1.666 12.8 0 8.483 0 5.462v-.074c-.002-.584-.004-1.818.65-2.896zM3.216 4.05C3.033 4.348 3 4.784 3 5.462c0 2.17 1.313 5.873 3.672 9.076C9.034 17.744 12.105 20 15.346 20c1.6 0 2.562-.257 3.173-.553.589-.286.956-.658 1.293-1.104.129-.169.234-.322.355-.497l.197-.285a6.73 6.73 0 01.754-.923c.7-.694 1.611-1.138 2.882-1.138 1.27 0 2.183.444 2.882 1.138.31.308.557.644.753.923l.198.285c.12.175.226.328.355.497.338.446.704.818 1.293 1.104.61.296 1.573.553 3.173.553 3.241 0 6.312-2.256 8.673-5.462C43.688 11.335 45 7.632 45 5.462c0-.678-.033-1.114-.215-1.412-.079-.13-.36-.55-1.746-.55-2.62 0-7.322.715-10.658 1.222-.894.136-1.69.257-2.322.346-.226.031-.425.136-.686.46-.27.335-.495.757-.806 1.345l-.124.234c-.647 1.215-1.773 3.316-4.443 3.316s-3.796-2.1-4.442-3.315l-.125-.235c-.311-.587-.535-1.01-.806-1.345-.261-.323-.46-.429-.687-.46-.62-.088-1.4-.206-2.277-.34C12.325 4.22 7.593 3.5 4.962 3.5c-1.386 0-1.668.42-1.747.55zm7.3 5.66c.066.528.353 1.55 1.018 2.48C12.253 13.2 13.336 14 15 14c1.642 0 2.308-1.032 2.308-1.615 0-.63-.44-1.327-1.603-1.954C14.575 9.822 13.121 9.5 12 9.5c-.84 0-1.284.123-1.485.21zm-1.63-2.527c.798-.48 1.86-.683 3.115-.683 1.58 0 3.53.428 5.129 1.29 1.566.845 3.179 2.34 3.179 4.595C20.308 15.032 17.858 17 15 17c-2.835 0-4.753-1.45-5.908-3.066C7.987 12.388 7.5 10.587 7.5 9.5c0-.959.515-1.796 1.385-2.317zm22.044.607c1.599-.862 3.548-1.29 5.129-1.29 1.256 0 2.316.203 3.115.683.87.521 1.385 1.358 1.385 2.317 0 1.087-.487 2.888-1.592 4.434C37.81 15.551 35.893 17 33.058 17c-2.859 0-5.308-1.968-5.308-4.615 0-2.255 1.613-3.75 3.179-4.595zm1.424 2.64c-1.163.628-1.603 1.325-1.603 1.955 0 .583.666 1.615 2.308 1.615 1.664 0 2.746-.8 3.467-1.81.665-.93.952-1.952 1.017-2.48-.2-.087-.645-.21-1.484-.21-1.122 0-2.576.322-3.705.93z" fill="#EE3D48"/></svg>