<svg width="40" height="10" viewBox="0 0 40 10" fill="none" xmlns="http://www.w3.org/2000/svg">
<path d="M18.9313 1.34375C18.3135 0.78125 17.5734 0.5 16.7052 0.5C14.3735 0.500002 13.2271 1.3086 12.2087 2.4336V2.46875C11.9372 2.75839 11.6132 3.19478 11.2392 3.6987C10.8925 4.1658 10.5027 4.69091 10.0717 5.21094C9.18683 6.2832 8.02929 7.38623 6.24291 7.88281C6.23178 7.88501 6.22621 7.8927 6.22064 7.90039C6.21508 7.90808 6.20951 7.91577 6.19838 7.91797C3.76088 8.64307 1.87989 8.15527 0.499756 7.28516C0.700098 7.60596 0.917137 7.91797 1.34565 8.19922C2.39188 8.88477 4.46209 9.5 8.24633 9.5C12.4313 9.5 16.9891 8.44531 18.8867 6.51172L19.9998 5.35156L21.1128 6.51172C23.0105 8.44531 27.5682 9.5 31.7532 9.5C35.5374 9.5 37.6076 8.88477 38.6539 8.19922C39.0824 7.91797 39.2994 7.60596 39.4998 7.28516C38.1196 8.15527 36.2386 8.64307 33.8011 7.91797C33.7956 7.91577 33.7872 7.91687 33.7789 7.91797C33.7705 7.91907 33.7622 7.92017 33.7566 7.91797V7.88281C31.9702 7.38623 30.8127 6.2832 29.9278 5.21094C29.492 4.6851 29.097 4.15407 28.7467 3.68308C28.3768 3.18576 28.0567 2.75539 27.7909 2.46875V2.43359C26.7724 1.30859 25.6205 0.5 23.2943 0.5C22.4261 0.5 21.686 0.776857 21.0683 1.34375L19.9998 2.36328L18.9313 1.34375Z" fill="#EE3D48"/>
</svg>
