<svg width="48" height="23" viewBox="0 0 48 23" fill="none" xmlns="http://www.w3.org/2000/svg">
<path fill-rule="evenodd" clip-rule="evenodd" d="M0.650855 2.49159C1.43712 1.19779 2.88573 0.5 4.96156 0.5C7.85367 0.5 12.9795 1.28234 16.2999 1.78913C17.1141 1.91339 17.8197 2.02109 18.3573 2.09662C19.559 2.26549 20.3841 2.92824 20.9617 3.64416C21.4292 4.2237 21.7996 4.92764 22.0894 5.4783C22.1296 5.55479 22.1683 5.62832 22.2055 5.69815C22.9272 7.05344 23.298 7.42307 24 7.42307C24.7018 7.42307 25.0727 7.05338 25.7945 5.6976C25.8316 5.62782 25.8703 5.55436 25.9105 5.47794C26.2003 4.92713 26.5708 4.22297 27.0384 3.64334C27.6161 2.92735 28.4416 2.26469 29.6437 2.0965C30.1891 2.02018 30.9082 1.91053 31.7383 1.78394C35.0591 1.27753 40.1579 0.5 43.0385 0.5C45.1143 0.5 46.5629 1.19779 47.3492 2.49159C48.0045 3.56994 48.0015 4.80384 48.0001 5.38846C48.0001 5.41409 48 5.43847 48 5.46154C48 8.48322 46.3344 12.7994 43.743 16.3175C41.1534 19.833 37.3015 23 32.6539 23C30.7435 23 29.302 22.6944 28.1724 22.1465C27.0219 21.5886 26.3128 20.836 25.7974 20.1565C25.6262 19.9307 25.457 19.6854 25.3192 19.4855C25.2685 19.4119 25.2219 19.3444 25.1812 19.2864C25.0069 19.0384 24.8835 18.8818 24.7687 18.7678C24.6178 18.6181 24.4602 18.5 24 18.5C23.5399 18.5 23.3822 18.6181 23.2313 18.7678C23.1165 18.8818 22.9932 19.0384 22.8189 19.2864C22.7781 19.3444 22.7316 19.4119 22.6808 19.4855C22.543 19.6854 22.3739 19.9307 22.2026 20.1565C21.6872 20.836 20.9781 21.5886 19.8276 22.1465C18.698 22.6944 17.2566 23 15.3462 23C10.6985 23 6.84658 19.833 4.25706 16.3175C1.66561 12.7994 1.6202e-05 8.48322 1.6202e-05 5.46154C1.6202e-05 5.43847 -4.2449e-05 5.41409 -0.000103961 5.38846C-0.00150908 4.80383 -0.00447488 3.56994 0.650855 2.49159ZM3.21456 4.04961C3.03324 4.34797 3.00002 4.78363 3.00002 5.46154C3.00002 7.63217 4.31308 11.3352 6.67249 14.5383C9.03383 17.744 12.105 20 15.3462 20C16.9458 20 17.9084 19.7431 18.5186 19.4472C19.108 19.1614 19.4746 18.789 19.8124 18.3435C19.9408 18.1742 20.0461 18.0213 20.1672 17.8456C20.2275 17.7581 20.2916 17.6649 20.3645 17.5613C20.5608 17.2819 20.8078 16.9464 21.1181 16.6384C21.8175 15.9444 22.7294 15.5 24 15.5C25.2706 15.5 26.1826 15.9444 26.8819 16.6384C27.1922 16.9464 27.4392 17.2819 27.6355 17.5613C27.7084 17.6649 27.7726 17.7581 27.8328 17.8455C27.9539 18.0213 28.0592 18.1742 28.1876 18.3435C28.5255 18.789 28.8921 19.1614 29.4814 19.4472C30.0916 19.7431 31.0543 20 32.6539 20C35.8951 20 38.9662 17.744 41.3275 14.5383C43.687 11.3352 45 7.63217 45 5.46154C45 4.78363 44.9668 4.34798 44.7855 4.04961C44.7063 3.91942 44.4242 3.5 43.0385 3.5C40.4184 3.5 35.7166 4.21496 32.3808 4.72222C31.4867 4.85818 30.6908 4.97921 30.0593 5.06756C29.8327 5.09928 29.6338 5.20419 29.3732 5.52714C29.1022 5.86301 28.8785 6.28522 28.5669 6.87319C28.527 6.94848 28.4856 7.02648 28.4426 7.10737C27.7959 8.32215 26.6697 10.4231 24 10.4231C21.3305 10.4231 20.2043 8.32295 19.5575 7.10811C19.5143 7.02704 19.4729 6.94888 19.4329 6.87344C19.1215 6.2858 18.8977 5.8637 18.6267 5.52778C18.366 5.20461 18.1668 5.09934 17.9398 5.06744C17.3191 4.98022 16.5392 4.86152 15.6631 4.7282C12.3254 4.22024 7.59276 3.5 4.96156 3.5C3.57584 3.5 3.29368 3.91942 3.21456 4.04961ZM10.5153 9.71078C10.5812 10.2383 10.868 11.2594 11.5331 12.1906C12.2535 13.1991 13.3356 14 15 14C16.6415 14 17.3077 12.9676 17.3077 12.3846C17.3077 11.7547 16.8675 11.0576 15.7051 10.4309C14.5758 9.82198 13.1214 9.5 12 9.5C11.1603 9.5 10.7165 9.62253 10.5153 9.71078ZM8.88452 7.18251C9.68319 6.70331 10.7441 6.5 12 6.5C13.5803 6.5 15.5298 6.92802 17.1289 7.79028C18.695 8.63469 20.3077 10.13 20.3077 12.3846C20.3077 15.0324 17.8585 17 15 17C12.1645 17 10.2466 15.5509 9.09192 13.9344C7.98715 12.3877 7.50002 10.5866 7.50002 9.5C7.50002 8.54142 8.01479 7.70435 8.88452 7.18251ZM30.9288 7.79028C32.528 6.92802 34.4774 6.5 36.0577 6.5C37.3137 6.5 38.3745 6.70331 39.1732 7.18251C40.0429 7.70435 40.5577 8.54142 40.5577 9.5C40.5577 10.5866 40.0706 12.3877 38.9658 13.9344C37.8112 15.5509 35.8932 17 33.0577 17C30.1992 17 27.75 15.0324 27.75 12.3846C27.75 10.13 29.3628 8.63469 30.9288 7.79028ZM32.3526 10.4309C31.1903 11.0576 30.75 11.7547 30.75 12.3846C30.75 12.9676 31.4162 14 33.0577 14C34.7222 14 35.8043 13.1991 36.5246 12.1906C37.1898 11.2594 37.4765 10.2383 37.5424 9.71078C37.3412 9.62253 36.8975 9.5 36.0577 9.5C34.9363 9.5 33.4819 9.82198 32.3526 10.4309Z" fill="#EE3D48"/>
</svg>
