<svg width="56" height="60" fill="none" xmlns="http://www.w3.org/2000/svg"><path fill-rule="evenodd" clip-rule="evenodd" d="M39.993 51.071c-3.394 2.09-7.368 3.325-11.619 3.325-4.22 0-8.133-1.203-11.527-3.26l-5.658 2.754C15.93 57.72 21.892 60 28.374 60c6.514 0 12.506-2.31 17.245-6.142l-5.626-2.787zM10.661 8.508A29.203 29.203 0 00.823 25.837l4.526-4.94 1.866 1.805c1.498-4.117 4.066-7.695 7.4-10.322l-1.07-1.098a26.188 26.188 0 0114.89-4.633 25.99 25.99 0 0114.85 4.635l-1.06 1.096a23.58 23.58 0 017.34 10.195l2.263-1.456 4.157 4.56c-1.242-6.844-4.799-12.877-9.807-17.145l1.826-1.916C42.5 2.47 35.744 0 28.405 0s-14.097 2.438-19.6 6.585l1.856 1.923z" fill="#EE3D48"/></svg>